<svg xmlns="http://www.w3.org/2000/svg" xmlns:xlink="http://www.w3.org/1999/xlink" xmlns:lucid="lucid" width="676.67" height="541.44"><g transform="translate(0 0)" lucid:page-tab-id="LFJwLjXV3-6S"><path d="M340 520V20" fill="none"/><path d="M340 520v-4.03m0-8.07v-8.06m0-8.07v-8.06m0-8.05v-8.07m0-8.06v-8.07m0-8.06v-8.08m0-8.06v-8.07m0-8.07v-8.07m0-8.06v-8.06m0-8.07v-8.06m0-8.06v-8.06m0-8.07v-8.05m0-8.07v-8.06m0-8.07v-8.06m0-8.07v-8.07m0-8.06v-8.07m0-8.06v-8.07m0-8.06v-8.07m0-8.06v-8.05m0-8.07v-8.06m0-8.07v-8.06m0-8.08v-8.06m0-8.07v-8.07m0-8.07V145m0-8.06v-8.07m0-8.06v-8.06m0-8.06V96.6m0-8.05v-8.07m0-8.06v-8.07m0-8.06v-8.07m0-8.07V32.1m0-8.07V20" stroke="#000" stroke-width="2" fill="none"/><path d="M371 126h89v354H220V100h144zm-151 0h151" stroke="#000" stroke-width="2" fill="#fff"/><use xlink:href="#a" transform="matrix(1,0,0,1,228,100) translate(18.68 19.240000000000002)"/><use xlink:href="#b" transform="matrix(1,0,0,1,228,100) translate(62.919999999999995 19.240000000000002)"/><path d="M350 40h80v40h-80z" fill="none"/><use xlink:href="#c" transform="matrix(1,0,0,1,349.99999999999994,40) translate(12 23.6)"/><path d="M500 200h-70" fill="none"/><path d="M500 200h-11.67m-11.66 0h-23.34m-11.66 0H430" stroke="#000" stroke-width="2" fill="none"/><path/><path d="M444.27 204.64L430 200l14.27-4.64z" fill="#fff"/><path d="M445.27 206L430 201.06v-2.1l15.27-4.96zm-12.03-6l10.03 3.26v-6.52z"/><path d="M580 260v79" stroke="#000" stroke-width="2" fill="none"/><path d="M594.85 274.85L580 290l-14.85-15.15L580 260z" fill="#fff"/><path d="M596.26 274.84L580 291.44l-16.26-16.6L578.6 260h2.8zm-29.7.02l13.44 13.7 13.44-13.7L580 261.4zM581 340h-2v-1h2z"/><use xlink:href="#d" transform="matrix(1,0,0,1,588,314.0733333333334) translate(0.005000000000000782 18)"/><path d="M500 400h-70" fill="none"/><path d="M500 400h-11.67m-11.66 0h-23.34m-11.66 0H430" stroke="#000" stroke-width="2" fill="none"/><path/><path d="M444.27 404.64L430 400l14.27-4.64z" fill="#fff"/><path d="M445.27 406L430 401.06v-2.1l15.27-4.96zm-12.03-6l10.03 3.26v-6.52z"/><path d="M20 140h160v120H20z" stroke="#000" stroke-width="2" fill="#fff"/><use xlink:href="#e" transform="matrix(1,0,0,1,28,148) translate(46.75 58.24)"/><path d="M180 200h69" stroke="#000" stroke-width="2" fill="none"/><path/><path d="M249 200l-14.27 4.64v-9.28z" fill="#fff"/><path d="M250 199.27v1.46L233.73 206v-12zm-14.27 4l10.03-3.27-10.03-3.26z"/><path d="M250 40h80v40h-80z" fill="none"/><use xlink:href="#f" transform="matrix(1,0,0,1,250,40) translate(15.074999999999996 23.6)"/><path d="M340 481V129.4" fill="none"/><path d="M340 481v-4m0-8v-7.98m0-8v-7.98m0-8v-7.98m0-8v-7.98m0-8v-8m0-7.98v-8m0-7.98v-8m0-7.98v-8m0-7.98v-8m0-7.98v-8m0-8v-7.98m0-8v-7.98m0-8v-7.98m0-8v-7.98m0-8v-8m0-7.98v-8m0-7.98v-8m0-7.98v-8m0-7.98v-8m0-7.98v-8m0-8v-7.98m0-8v-3.98" stroke="#000" stroke-opacity=".17" stroke-width="2" fill="none"/><path fill-opacity=".17"/><path d="M250 160h180v80H250z" stroke="#000" stroke-width="2" fill="#fff"/><use xlink:href="#g" transform="matrix(1,0,0,1,258,168) translate(23.574999999999996 24.799999999999997)"/><use xlink:href="#h" transform="matrix(1,0,0,1,258,168) translate(21.025 46.4)"/><path d="M250 360h180v80H250z" stroke="#000" stroke-width="2" fill="#fff"/><use xlink:href="#g" transform="matrix(1,0,0,1,258,368) translate(23.574999999999996 24.799999999999997)"/><use xlink:href="#i" transform="matrix(1,0,0,1,258,368) translate(49.025 46.4)"/><path d="M512 352v-12h148v108h-12v-96H512z" stroke="#000" stroke-width="2" fill="#fff"/><path d="M500 352h148v108H500z" stroke="#000" stroke-width="2" fill="#fff"/><use xlink:href="#j" transform="matrix(1,0,0,1,500,352) translate(41.94499999999999 66.75)"/><path d="M512 152v-12h148v108h-12v-96H512z" stroke="#000" stroke-width="2" fill="#fff"/><path d="M500 152h148v108H500z" stroke="#000" stroke-width="2" fill="#fff"/><g><use xlink:href="#k" transform="matrix(1,0,0,1,500,152) translate(14.964999999999998 66.75)"/></g><defs><path d="M522-493c0 190-158 248-354 227V0H85v-693c48-12 110-15 169-15 155 0 268 57 268 215zm-88 0c0-134-136-157-266-137v290c139 17 266-9 266-153" id="l"/><path d="M85-700h381v74H168v229h273v74H168v249h303V0H85v-700" id="m"/><path d="M104-700h83V0h-83v-700" id="n"/><g id="a"><use transform="matrix(0.02,0,0,0.02,0,0)" xlink:href="#l"/><use transform="matrix(0.02,0,0,0.02,11.18,0)" xlink:href="#m"/><use transform="matrix(0.02,0,0,0.02,21.900000000000002,0)" xlink:href="#l"/><use transform="matrix(0.02,0,0,0.02,33.08,0)" xlink:href="#n"/></g><path d="M378-62c56 2 101-12 135-32l20 65C494 2 428 12 359 12 150 12 58-132 56-350c-2-250 141-394 402-356 25 4 47 11 65 18l-20 73c-32-15-78-23-137-23-158 0-222 119-222 288S215-68 378-62" id="o"/><path d="M268 12C112 12 51-93 49-250c-1-158 69-262 219-262 156 0 217 105 219 262 1 158-69 262-219 262zm136-262c0-105-32-190-136-192-91-2-136 63-136 192 0 105 33 189 136 192 91 2 136-63 136-192" id="p"/><path d="M152-439c26-60 97-88 178-61l-17 77c-74-29-156 5-156 73V0H77v-500h56l15 61h4" id="q"/><path d="M293-58c43 0 98-19 119-40l30 58C404-9 338 12 270 12 112 10 51-92 49-250c-1-159 70-258 220-262 155-4 211 110 184 270H132c0 116 45 184 161 184zm88-247c1-92-30-137-111-137-89 0-129 46-137 137h248" id="r"/><g id="b"><use transform="matrix(0.02,0,0,0.02,0,0)" xlink:href="#o"/><use transform="matrix(0.02,0,0,0.02,10.72,0)" xlink:href="#p"/><use transform="matrix(0.02,0,0,0.02,21.44,0)" xlink:href="#q"/><use transform="matrix(0.02,0,0,0.02,28.240000000000002,0)" xlink:href="#r"/></g><path d="M178-136c88 48 22 151-73 140C49-3 12-15 4-64l51-9c1 50 111 53 115 3-16-63-132-20-133-112 0-93 190-91 199-10l-50 12c-4-41-93-50-97-4 7 38 59 32 89 48" id="s"/><path d="M114-194c63-2 87 48 72 110H63c-3 28 1 55 31 54 21-1 32-13 37-29l44 13C160-14 137 4 91 4 41 4 11-22 11-73c0-71 33-119 103-121zm30 77c14-47-50-61-67-22-3 6-6 13-8 22h75" id="t"/><path d="M84-151c13-25 34-51 72-40l-8 41C67-170 71-64 56 0H6l36-190h47" id="u"/><path d="M109 0H50L19-190h51L86-37l77-153h54" id="v"/><g id="c"><use transform="matrix(0.05,0,0,0.05,0,0)" xlink:href="#s"/><use transform="matrix(0.05,0,0,0.05,12,0)" xlink:href="#t"/><use transform="matrix(0.05,0,0,0.05,22,0)" xlink:href="#u"/><use transform="matrix(0.05,0,0,0.05,29,0)" xlink:href="#v"/><use transform="matrix(0.05,0,0,0.05,39,0)" xlink:href="#t"/><use transform="matrix(0.05,0,0,0.05,49,0)" xlink:href="#u"/></g><path d="M108-74h140v-484l10-59-40 47-110 79-38-51 220-170h36v638h137V0H108v-74" id="w"/><path d="M106 12c-34 0-57-24-57-58 0-35 22-58 57-58s60 22 59 58c0 34-24 58-59 58" id="x"/><path d="M313-512c130 0 165 79 165 210V0h-80v-285c-2-94-16-155-105-157-72-1-118 46-136 100V0H77v-500h56l15 61h4c32-42 86-73 161-73" id="y"/><g id="d"><use transform="matrix(0.02,0,0,0.02,0,0)" xlink:href="#w"/><use transform="matrix(0.02,0,0,0.02,10.9,0)" xlink:href="#x"/><use transform="matrix(0.02,0,0,0.02,16.48,0)" xlink:href="#x"/><use transform="matrix(0.02,0,0,0.02,20.76,0)" xlink:href="#y"/></g><path d="M189 12C123 10 86-25 86-100v-600h80v577c-10 72 59 74 108 54l9 63c-18 10-66 18-94 18" id="z"/><path d="M94-500h80V0H94v-500zm38-99c-31 0-55-23-55-53s24-56 55-56 58 26 58 56-28 53-58 53" id="A"/><path d="M200 12C109 10 89-39 89-138v-292H11v-70h78v-99l80-23v122h136v70H169v277c1 59 6 93 57 95 38 1 55-9 84-20l18 61c-35 17-77 30-128 29" id="B"/><g id="e"><use transform="matrix(0.02,0,0,0.02,0,0)" xlink:href="#o"/><use transform="matrix(0.02,0,0,0.02,11.42,0)" xlink:href="#z"/><use transform="matrix(0.02,0,0,0.02,17.259999999999998,0)" xlink:href="#A"/><use transform="matrix(0.02,0,0,0.02,22.619999999999997,0)" xlink:href="#r"/><use transform="matrix(0.02,0,0,0.02,32.78,0)" xlink:href="#y"/><use transform="matrix(0.02,0,0,0.02,43.72,0)" xlink:href="#B"/></g><path d="M161-211c-63 0-91 46-91 110 0 39 17 65 58 64 38-1 60-20 74-45l40 20C220-23 184 0 125 4 9 13-10-144 57-208c33-50 166-62 196-1 4 8 9 18 11 27l-48 12c-6-24-25-41-55-41" id="C"/><path d="M6 0l51-261h49L55 0H6" id="D"/><path d="M50-224l7-37h49l-7 37H50zM6 0l37-190h49L55 0H6" id="E"/><path d="M151-194c95 0 34 128 28 194h-49l25-134c0-29-45-25-59-9C67-111 69-48 56 0H6l36-190h47l-4 32c15-20 33-36 66-36" id="F"/><path d="M72-63c-8 23 5 39 32 30L98-1C54 14 12-6 23-64l18-93H15l7-33h28l24-45h31l-8 45h35l-6 33H90" id="G"/><g id="f"><use transform="matrix(0.05,0,0,0.05,0,0)" xlink:href="#C"/><use transform="matrix(0.05,0,0,0.05,12.950000000000001,0)" xlink:href="#D"/><use transform="matrix(0.05,0,0,0.05,17.950000000000003,0)" xlink:href="#E"/><use transform="matrix(0.05,0,0,0.05,22.950000000000003,0)" xlink:href="#t"/><use transform="matrix(0.05,0,0,0.05,32.95,0)" xlink:href="#F"/><use transform="matrix(0.05,0,0,0.05,43.900000000000006,0)" xlink:href="#G"/></g><path d="M15-91v-56l181-69v40L49-119l147 57v40" id="H"/><path d="M25-224v-37h50v37H25zM25 0v-190h50V0H25" id="I"/><path d="M135-194c87-1 58 113 63 194h-50c-7-57 23-157-34-157-59 0-34 97-39 157H25l-1-190h47c2 12-1 28 3 38 12-26 28-41 61-42" id="J"/><path d="M115-3C79 11 28 4 28-45v-112H4v-33h27l15-45h31v45h36v33H77v99c-1 23 16 31 38 25v30" id="K"/><path d="M185-48c-13 30-37 53-82 52C43 2 14-33 14-96s30-98 90-98c62 0 83 45 84 108H66c0 31 8 55 39 56 18 0 30-7 34-22zm-45-69c5-46-57-63-70-21-2 6-4 13-4 21h74" id="L"/><path d="M135-150c-39-12-60 13-60 57V0H25l-1-190h47c2 13-1 29 3 40 6-28 27-53 61-41v41" id="M"/><path d="M121-226c-27-7-43 5-38 36h38v33H83V0H34v-157H6v-33h28c-9-59 32-81 87-68v32" id="N"/><path d="M133-34C117-15 103 5 69 4 32 3 11-16 11-54c-1-60 55-63 116-61 1-26-3-47-28-47-18 1-26 9-28 27l-52-2c7-38 36-58 82-57s74 22 75 68l1 82c-1 14 12 18 25 15v27c-30 8-71 5-69-32zm-48 3c29 0 43-24 42-57-32 0-66-3-65 30 0 17 8 27 23 27" id="O"/><path d="M190-63c-7 42-38 67-86 67-59 0-84-38-90-98-12-110 154-137 174-36l-49 2c-2-19-15-32-35-32-30 0-35 28-38 64-6 74 65 87 74 30" id="P"/><path d="M15-22v-40l146-57-146-57v-40l181 69v56" id="Q"/><g id="g"><use transform="matrix(0.05,0,0,0.05,0,0)" xlink:href="#H"/><use transform="matrix(0.05,0,0,0.05,10.5,0)" xlink:href="#H"/><use transform="matrix(0.05,0,0,0.05,21,0)" xlink:href="#I"/><use transform="matrix(0.05,0,0,0.05,26,0)" xlink:href="#J"/><use transform="matrix(0.05,0,0,0.05,36.95,0)" xlink:href="#K"/><use transform="matrix(0.05,0,0,0.05,42.900000000000006,0)" xlink:href="#L"/><use transform="matrix(0.05,0,0,0.05,52.900000000000006,0)" xlink:href="#M"/><use transform="matrix(0.05,0,0,0.05,59.900000000000006,0)" xlink:href="#N"/><use transform="matrix(0.05,0,0,0.05,65.85000000000001,0)" xlink:href="#O"/><use transform="matrix(0.05,0,0,0.05,75.85000000000001,0)" xlink:href="#P"/><use transform="matrix(0.05,0,0,0.05,85.85000000000001,0)" xlink:href="#L"/><use transform="matrix(0.05,0,0,0.05,95.85000000000001,0)" xlink:href="#Q"/><use transform="matrix(0.05,0,0,0.05,106.35000000000001,0)" xlink:href="#Q"/></g><path d="M67-125c0 53 21 87 73 88 37 1 54-22 65-47l45 17C233-25 199 4 140 4 58 4 20-42 15-125 8-235 124-281 211-232c18 10 29 29 36 50l-46 12c-8-25-30-41-62-41-52 0-71 34-72 86" id="R"/><path d="M220-157c-53 9-28 100-34 157h-49v-107c1-27-5-49-29-50C55-147 81-57 75 0H25l-1-190h47c2 12-1 28 3 38 10-53 101-56 108 0 13-22 24-43 59-42 82 1 51 116 57 194h-49v-107c-1-25-5-48-29-50" id="S"/><path d="M169-182c-1-43-94-46-97-3 18 66 151 10 154 114 3 95-165 93-204 36-6-8-10-19-12-30l50-8c3 46 112 56 116 5-17-69-150-10-154-114-4-87 153-88 188-35 5 8 8 18 10 28" id="T"/><path d="M128 0H69L1-190h53L99-40l48-150h52" id="U"/><g id="h"><use transform="matrix(0.05,0,0,0.05,0,0)" xlink:href="#R"/><use transform="matrix(0.05,0,0,0.05,12.950000000000001,0)" xlink:href="#O"/><use transform="matrix(0.05,0,0,0.05,22.950000000000003,0)" xlink:href="#S"/><use transform="matrix(0.05,0,0,0.05,38.95,0)" xlink:href="#L"/><use transform="matrix(0.05,0,0,0.05,48.95,0)" xlink:href="#M"/><use transform="matrix(0.05,0,0,0.05,55.95,0)" xlink:href="#O"/><use transform="matrix(0.05,0,0,0.05,65.95,0)" xlink:href="#T"/><use transform="matrix(0.05,0,0,0.05,77.95,0)" xlink:href="#L"/><use transform="matrix(0.05,0,0,0.05,87.95,0)" xlink:href="#M"/><use transform="matrix(0.05,0,0,0.05,94.95,0)" xlink:href="#U"/><use transform="matrix(0.05,0,0,0.05,104.95,0)" xlink:href="#L"/><use transform="matrix(0.05,0,0,0.05,114.95,0)" xlink:href="#M"/></g><g id="i"><use transform="matrix(0.05,0,0,0.05,0,0)" xlink:href="#R"/><use transform="matrix(0.05,0,0,0.05,12.950000000000001,0)" xlink:href="#O"/><use transform="matrix(0.05,0,0,0.05,22.950000000000003,0)" xlink:href="#S"/><use transform="matrix(0.05,0,0,0.05,38.95,0)" xlink:href="#L"/><use transform="matrix(0.05,0,0,0.05,48.95,0)" xlink:href="#M"/><use transform="matrix(0.05,0,0,0.05,55.95,0)" xlink:href="#O"/></g><path d="M422-354c0 120-19 253 8 356h-59l-21-70h-5C315-22 265 8 189 8 98 8 39-43 39-134c0-147 152-157 302-151 10-93 1-159-99-153-57 4-110 14-148 35l-25-60c48-30 118-45 194-45 108-1 159 51 159 154zM122-142c-2 47 40 81 89 80 67-1 109-32 130-79v-83c-95-3-214-10-219 82" id="V"/><path d="M568-442c-74 2-103 45-118 108V0h-80v-283c0-87-6-159-94-159-65 0-104 47-119 98V0H77v-500h56l15 61h4c37-41 77-74 155-73 72 1 105 26 126 83 28-48 82-81 155-83 130-3 155 82 155 212V0h-80v-301c1-83-12-143-95-141" id="W"/><g id="j"><use transform="matrix(0.02,0,0,0.02,0,0)" xlink:href="#o"/><use transform="matrix(0.02,0,0,0.02,11.08,0)" xlink:href="#V"/><use transform="matrix(0.02,0,0,0.02,21,0)" xlink:href="#W"/><use transform="matrix(0.02,0,0,0.02,37.24,0)" xlink:href="#r"/><use transform="matrix(0.02,0,0,0.02,47.40000000000001,0)" xlink:href="#q"/><use transform="matrix(0.02,0,0,0.02,54.2,0)" xlink:href="#V"/></g><path d="M74-100c89 50 337 72 327-78-8-132-168-134-251-198-46-36-87-77-87-158 0-190 253-210 408-146l-25 73c-38-17-105-31-168-31-104 0-173 93-107 164 94 102 313 99 313 289C484-48 386 9 246 12 162 13 95-2 46-25" id="X"/><path d="M101-500c50 129 110 248 149 388 32-143 91-259 137-388h86L260 11h-34L9-500h92" id="Y"/><g id="k"><use transform="matrix(0.02,0,0,0.02,0,0)" xlink:href="#o"/><use transform="matrix(0.02,0,0,0.02,11.08,0)" xlink:href="#V"/><use transform="matrix(0.02,0,0,0.02,21,0)" xlink:href="#W"/><use transform="matrix(0.02,0,0,0.02,37.24,0)" xlink:href="#r"/><use transform="matrix(0.02,0,0,0.02,47.40000000000001,0)" xlink:href="#q"/><use transform="matrix(0.02,0,0,0.02,54.2,0)" xlink:href="#V"/><use transform="matrix(0.02,0,0,0.02,64.12,0)" xlink:href="#X"/><use transform="matrix(0.02,0,0,0.02,74.74000000000001,0)" xlink:href="#r"/><use transform="matrix(0.02,0,0,0.02,84.9,0)" xlink:href="#q"/><use transform="matrix(0.02,0,0,0.02,91.7,0)" xlink:href="#Y"/><use transform="matrix(0.02,0,0,0.02,101.12,0)" xlink:href="#r"/><use transform="matrix(0.02,0,0,0.02,111.28,0)" xlink:href="#q"/></g></defs></g></svg>